<svg xmlns="http://www.w3.org/2000/svg" width="54" height="48" viewBox="0 0 54 48"><defs><clipPath id="e6ela"><path d="M27-.092L.006 46.492h53.988L27-.092"/></clipPath></defs><g><g><path fill="#ed322d" d="M49.997 32.8c0 4.623 3.402 14.449 3.402 14.449S41.666 43.937 27 43.937C12.333 43.937.6 47.25.6 47.25s3.403-9.826 3.403-14.45C4.003 28.177.6 18.35.6 18.35s11.733 3.313 26.4 3.313c14.666 0 26.4-3.313 26.4-3.313s-3.403 9.826-3.403 14.45z"/></g><g><path fill="#ed322d" d="M27-.092L.006 46.492h53.988L27-.092"/></g><g clip-path="url(#e6ela)"><path fill="#a30000" d="M27 18.507L.006 65.092h53.988L27 18.507"/></g><g><path fill="#ed322d" d="M26.4 31a6.6 6.6 0 1 1 0 13.2 6.6 6.6 0 0 1 0-13.2z"/></g><g><path fill="#690000" d="M26.4 33.376a4.224 4.224 0 1 1 0 8.448 4.224 4.224 0 0 1 0-8.448z"/></g></g></svg>