<svg xmlns="http://www.w3.org/2000/svg" width="28" height="55" viewBox="0 0 28 55"><defs><clipPath id="j7qga"><path fill="#fff" d="M0 55V0h28v55zm2-43v31c0 5.522 4.477 10 10 10h4c5.523 0 10-4.478 10-10V12c0-5.523-4.477-10-10-10h-4C6.477 2 2 6.477 2 12z"/></clipPath></defs><g><g><path fill="#ed322d" d="M12 2h4c5.523 0 10 4.477 10 10v31c0 5.522-4.477 10-10 10h-4C6.477 53 2 48.522 2 43V12C2 6.477 6.477 2 12 2z"/><path fill="none" stroke="#fff" stroke-linecap="round" stroke-linejoin="round" stroke-miterlimit="20" stroke-width="4" d="M12 2h4c5.523 0 10 4.477 10 10v31c0 5.522-4.477 10-10 10h-4C6.477 53 2 48.522 2 43V12C2 6.477 6.477 2 12 2z" clip-path="url(&quot;#j7qga&quot;)"/></g><g><path fill="#fff" d="M13 10.5h1v10h-1z"/></g></g></svg>